<?xml version="1.0" standalone="no"?>
<!DOCTYPE svg PUBLIC "-//W3C//DTD SVG 20010904//EN"
 "http://www.w3.org/TR/2001/REC-SVG-20010904/DTD/svg10.dtd">
<svg version="1.0" xmlns="http://www.w3.org/2000/svg"
 width="136.000000pt" height="136.000000pt" viewBox="0 0 136.000000 136.000000"
 preserveAspectRatio="xMidYMid meet">
<metadata>
Created by potrace 1.14, written by Peter Selinger 2001-2017
</metadata>
<g transform="translate(0.000000,136.000000) scale(0.100000,-0.100000)"
fill="#000000" stroke="none">
<path d="M665 1334 l-21 -20 21 -16 c19 -14 22 -14 40 1 20 16 20 16 0 36
l-20 20 -20 -21z"/>
<path d="M677 1225 c-3 -11 -9 -42 -12 -70 -10 -80 -21 -120 -33 -118 -6 2
-30 16 -54 32 -169 115 -199 127 -135 54 55 -64 117 -141 117 -146 0 -3 -39
-10 -87 -17 -138 -18 -142 -25 -23 -40 58 -7 111 -13 118 -13 18 0 15 -8 -19
-47 -17 -19 -41 -47 -53 -62 -17 -22 -37 -30 -101 -43 -97 -20 -165 -52 -185
-88 -13 -24 -13 -28 7 -54 20 -28 20 -29 2 -52 -24 -30 -24 -52 1 -81 l20 -23
-20 -22 c-25 -27 -25 -46 -1 -76 19 -24 19 -25 0 -48 -39 -48 -13 -87 78 -121
84 -32 178 -47 316 -52 53 -3 57 -4 58 -28 3 -77 6 -100 12 -107 4 -3 8 5 8
18 2 22 6 81 8 104 1 6 11 11 24 11 62 1 206 15 235 23 18 6 35 10 37 10 20
-1 77 17 110 34 69 35 82 71 41 112 -18 18 -21 25 -10 29 8 3 19 17 26 31 10
22 8 30 -10 55 l-22 30 20 20 c26 26 25 55 0 80 l-21 21 21 26 c28 36 25 58
-12 87 -32 23 -135 58 -210 71 -26 4 -44 16 -63 40 -14 20 -37 47 -51 62 -32
34 -25 38 99 53 53 7 97 16 97 20 0 4 -28 10 -62 14 -76 8 -132 17 -137 21 -2
2 14 25 35 52 22 26 46 56 54 66 8 10 25 31 37 45 13 15 23 30 23 34 0 8 -65
-32 -173 -105 -32 -21 -60 -37 -61 -35 -2 1 -8 37 -15 79 -7 42 -16 89 -20
105 -7 25 -8 27 -14 9z m-31 -428 c2 -13 -6 -17 -34 -17 l-37 0 25 20 c29 22
42 21 46 -3z m124 3 l25 -21 -34 3 c-24 2 -35 8 -37 21 -3 23 15 21 46 -3z
m-129 -49 c9 -2 10 -91 1 -92 -4 -1 -22 -2 -39 -4 -141 -12 -199 -21 -276 -42
-54 -15 -59 -15 -77 2 -25 22 -25 37 -2 58 21 19 106 50 167 61 l40 8 -24 -26
c-37 -39 -18 -42 36 -5 52 36 119 52 174 40z m257 -37 c59 -39 79 -38 42 1
-13 14 -20 25 -15 25 27 0 146 -35 178 -53 41 -23 47 -45 17 -72 -17 -15 -25
-16 -62 -6 -75 21 -121 30 -188 36 -36 4 -78 8 -95 10 -16 1 -36 3 -42 4 -13
1 -19 82 -7 93 3 3 31 4 62 2 44 -4 69 -13 110 -40z m-246 -134 l3 -45 -40 -1
c-53 0 -199 20 -255 36 l-45 13 41 13 c70 20 272 45 286 34 3 -3 8 -25 10 -50z
m179 46 c79 -5 224 -34 216 -43 -18 -17 -176 -45 -272 -47 l-60 -1 2 40 c4 52
9 66 25 61 7 -3 47 -7 89 -10z m-478 -81 c29 -8 64 -16 79 -17 39 -3 25 -14
-26 -21 -24 -4 -63 -13 -87 -21 -39 -14 -46 -14 -66 0 -13 8 -23 23 -23 34 0
22 39 53 58 45 7 -2 36 -11 65 -20z m765 9 c28 -19 28 -48 1 -67 -17 -13 -27
-12 -77 3 -32 10 -73 20 -91 23 -49 8 -47 14 8 21 27 4 67 13 88 21 49 18 45
18 71 -1z m-462 -98 l2 -49 -92 6 c-100 7 -248 36 -241 47 3 4 44 15 92 24
113 20 128 22 188 21 l49 0 2 -49z m249 39 c71 -13 136 -29 140 -35 7 -12
-145 -41 -242 -47 l-93 -6 4 49 c2 27 4 51 5 53 1 4 140 -6 186 -14z m-535
-80 c47 -13 78 -24 70 -25 -30 -3 -56 -9 -112 -26 -55 -16 -59 -16 -78 1 -24
22 -25 38 -4 59 20 20 22 20 124 -9z m751 15 c49 -27 -2 -89 -57 -70 -16 6
-58 16 -94 24 l-65 13 60 12 c33 7 69 16 80 21 27 12 53 12 76 0z m-465 -53
c6 -6 7 -74 1 -84 -5 -7 -31 -9 -79 -6 -61 4 -104 11 -235 37 -36 7 -24 15 47
31 101 23 253 36 266 22z m249 -8 c143 -22 170 -39 85 -54 -18 -3 -36 -7 -39
-9 -8 -5 -93 -15 -173 -21 l-68 -4 0 53 0 53 63 -3 c34 -2 94 -9 132 -15z
m-569 -68 c33 -11 92 -23 130 -27 38 -4 78 -8 89 -10 11 -1 40 -3 65 -3 l45
-1 3 -51 2 -51 -93 6 c-50 3 -102 8 -113 10 -12 2 -37 7 -57 10 -47 7 -127 34
-154 52 -29 18 -29 48 -1 68 12 9 23 16 23 16 0 0 27 -9 61 -19z m782 3 c69
-48 -24 -102 -222 -128 -56 -8 -122 -14 -148 -15 l-47 -2 2 51 c2 50 2 50 37
51 19 1 38 1 42 0 23 -3 229 30 263 43 51 19 47 19 73 0z"/>
</g>
</svg>
